<svg width="900" height="900" viewBox="0 0 900 900" fill="none" xmlns="http://www.w3.org/2000/svg">
  <defs>
    <linearGradient id="bg" x1="0" y1="0" x2="1" y2="1">
      <stop offset="0%" stop-color="#0B1023"/>
      <stop offset="100%" stop-color="#1B2A52"/>
    </linearGradient>
    <linearGradient id="accent" x1="0" y1="0" x2="1" y2="1">
      <stop offset="0%" stop-color="#00F5D4"/>
      <stop offset="100%" stop-color="#00C2FF"/>
    </linearGradient>
    <filter id="glow" x="-30%" y="-30%" width="160%" height="160%">
      <feGaussianBlur stdDeviation="8" result="blur"/>
      <feMerge>
        <feMergeNode in="blur"/>
        <feMergeNode in="SourceGraphic"/>
      </feMerge>
    </filter>
  </defs>

  <rect width="900" height="900" rx="38" fill="url(#bg)"/>
  <circle cx="210" cy="180" r="120" fill="#132247" opacity="0.7"/>
  <circle cx="700" cy="720" r="160" fill="#0C1A3A" opacity="0.9"/>

  <g filter="url(#glow)">
    <path d="M450 160L610 230V390C610 510 540 610 450 660C360 610 290 510 290 390V230L450 160Z" fill="#0F1B39" stroke="url(#accent)" stroke-width="12"/>
    <path d="M450 250L535 285V390C535 465 495 530 450 565C405 530 365 465 365 390V285L450 250Z" fill="#132A5B" stroke="#4BE8FF" stroke-width="8"/>
    <path d="M450 315L470 355H515L478 382L492 425L450 398L408 425L422 382L385 355H430L450 315Z" fill="url(#accent)"/>
  </g>

  <g>
    <rect x="520" y="360" width="230" height="300" rx="20" fill="#121F44" stroke="#3AE3FF" stroke-width="6"/>
    <rect x="560" y="430" width="150" height="10" rx="5" fill="#7FDBFF"/>
    <rect x="560" y="470" width="130" height="10" rx="5" fill="#7FDBFF"/>
    <rect x="560" y="510" width="150" height="10" rx="5" fill="#7FDBFF"/>
    <rect x="560" y="550" width="95" height="10" rx="5" fill="#7FDBFF"/>
    <circle cx="680" cy="610" r="34" fill="#0C1732" stroke="#00F5D4" stroke-width="6"/>
    <path d="M665 610H695" stroke="#00F5D4" stroke-width="6" stroke-linecap="round"/>
    <path d="M680 595V625" stroke="#00F5D4" stroke-width="6" stroke-linecap="round"/>
  </g>

  <text x="90" y="760" fill="#CDE8FF" font-family="Segoe UI, Arial" font-size="58" font-weight="700">Smart FIR Assistant</text>
  <text x="92" y="810" fill="#7ACDFF" font-family="Segoe UI, Arial" font-size="30">Police Workflow • FIR Records • IPC AI Search</text>
</svg>
