<svg width="800" height="800" viewBox="0 0 800 800" fill="none" xmlns="http://www.w3.org/2000/svg">
  <defs>
    <linearGradient id="bg" x1="0" y1="0" x2="800" y2="800" gradientUnits="userSpaceOnUse">
      <stop stop-color="#0D1226"/>
      <stop offset="1" stop-color="#05070F"/>
    </linearGradient>
    <linearGradient id="line" x1="132" y1="132" x2="668" y2="668" gradientUnits="userSpaceOnUse">
      <stop stop-color="#00F5D4"/>
      <stop offset="1" stop-color="#9FC2FF"/>
    </linearGradient>
    <filter id="glow" x="0" y="0" width="800" height="800" filterUnits="userSpaceOnUse" color-interpolation-filters="sRGB">
      <feFlood flood-opacity="0" result="BackgroundImageFix"/>
      <feBlend mode="normal" in="SourceGraphic" in2="BackgroundImageFix" result="shape"/>
      <feGaussianBlur stdDeviation="6" result="effect1_foregroundBlur"/>
    </filter>
  </defs>

  <rect x="0" y="0" width="800" height="800" rx="32" fill="url(#bg)"/>

  <g filter="url(#glow)">
    <rect x="132" y="132" width="536" height="536" rx="24" stroke="url(#line)" stroke-width="12"/>

    <line x1="310" y1="144" x2="310" y2="656" stroke="url(#line)" stroke-width="10"/>
    <line x1="490" y1="144" x2="490" y2="656" stroke="url(#line)" stroke-width="10"/>
    <line x1="144" y1="310" x2="656" y2="310" stroke="url(#line)" stroke-width="10"/>
    <line x1="144" y1="490" x2="656" y2="490" stroke="url(#line)" stroke-width="10"/>

    <line x1="186" y1="186" x2="282" y2="282" stroke="#00F5D4" stroke-width="14" stroke-linecap="round"/>
    <line x1="282" y1="186" x2="186" y2="282" stroke="#00F5D4" stroke-width="14" stroke-linecap="round"/>

    <circle cx="400" cy="220" r="52" stroke="#9FC2FF" stroke-width="14"/>

    <line x1="546" y1="186" x2="642" y2="282" stroke="#00F5D4" stroke-width="14" stroke-linecap="round"/>
    <line x1="642" y1="186" x2="546" y2="282" stroke="#00F5D4" stroke-width="14" stroke-linecap="round"/>

    <circle cx="220" cy="400" r="52" stroke="#9FC2FF" stroke-width="14"/>

    <line x1="366" y1="366" x2="434" y2="434" stroke="#00F5D4" stroke-width="14" stroke-linecap="round"/>
    <line x1="434" y1="366" x2="366" y2="434" stroke="#00F5D4" stroke-width="14" stroke-linecap="round"/>

    <circle cx="580" cy="400" r="52" stroke="#9FC2FF" stroke-width="14"/>

    <line x1="186" y1="546" x2="282" y2="642" stroke="#00F5D4" stroke-width="14" stroke-linecap="round"/>
    <line x1="282" y1="546" x2="186" y2="642" stroke="#00F5D4" stroke-width="14" stroke-linecap="round"/>

    <circle cx="400" cy="580" r="52" stroke="#9FC2FF" stroke-width="14"/>

    <line x1="546" y1="546" x2="642" y2="642" stroke="#00F5D4" stroke-width="14" stroke-linecap="round"/>
    <line x1="642" y1="546" x2="546" y2="642" stroke="#00F5D4" stroke-width="14" stroke-linecap="round"/>
  </g>

  <text x="400" y="738" fill="#ECF2FF" font-size="46" font-family="Segoe UI, Arial, sans-serif" text-anchor="middle">XO Game</text>
</svg>
